<?xml version="1.0" standalone="no"?>
<!DOCTYPE svg PUBLIC "-//W3C//DTD SVG 20010904//EN"
 "http://www.w3.org/TR/2001/REC-SVG-20010904/DTD/svg10.dtd">
<svg version="1.0" xmlns="http://www.w3.org/2000/svg"
 width="512.000000pt" height="512.000000pt" viewBox="0 0 512.000000 512.000000"
 preserveAspectRatio="xMidYMid meet">

<g transform="translate(0.000000,512.000000) scale(0.100000,-0.100000)"
fill="#000000" stroke="none">
<path d="M1560 4940 c-576 -71 -1082 -414 -1353 -920 -245 -457 -273 -1016
-74 -1487 l34 -81 -83 -418 c-46 -230 -84 -429 -84 -442 0 -42 38 -101 80
-122 21 -11 50 -20 62 -20 13 0 214 38 447 84 l423 83 82 -34 c81 -34 254 -88
261 -82 1 2 -3 36 -11 76 -36 191 -36 481 1 690 160 918 915 1610 1848 1695
l135 12 -25 50 c-74 147 -226 343 -362 466 -124 113 -242 193 -396 270 -254
127 -462 179 -745 185 -91 2 -199 0 -240 -5z"/>
<path d="M3170 3660 c-761 -94 -1366 -650 -1521 -1400 -21 -102 -24 -141 -24
-345 1 -202 3 -243 23 -335 120 -546 454 -983 940 -1226 448 -223 985 -243
1438 -51 l82 34 423 -83 c233 -46 434 -84 447 -84 12 0 41 9 62 20 42 21 80
80 80 122 0 13 -38 212 -84 442 l-83 418 33 79 c19 44 36 90 38 103 2 12 13
53 24 91 115 393 79 835 -97 1210 -249 527 -723 890 -1296 990 -108 19 -381
27 -485 15z"/>
</g>
</svg>
