<?xml version="1.0" standalone="no"?>
<!DOCTYPE svg PUBLIC "-//W3C//DTD SVG 20010904//EN"
 "http://www.w3.org/TR/2001/REC-SVG-20010904/DTD/svg10.dtd">
<svg version="1.0" xmlns="http://www.w3.org/2000/svg"
 width="360.000000pt" height="360.000000pt" viewBox="0 0 360.000000 360.000000"
 preserveAspectRatio="xMidYMid meet">

<g transform="translate(0.000000,360.000000) scale(0.100000,-0.100000)"
fill="#000000" stroke="none">
<path d="M1600 3589 c-323 -37 -658 -174 -909 -372 -333 -264 -562 -630 -649
-1037 -141 -654 91 -1330 603 -1758 373 -313 866 -464 1343 -411 549 60 1049
371 1335 830 60 97 149 284 183 384 122 367 122 782 0 1150 -36 108 -133 308
-199 408 -296 453 -786 751 -1326 806 -118 13 -272 12 -381 0z m422 -204 c367
-55 667 -210 925 -478 210 -218 348 -480 415 -790 19 -88 22 -132 22 -317 0
-238 -13 -325 -75 -512 -147 -438 -501 -812 -924 -977 -379 -148 -791 -148
-1170 0 -423 165 -777 539 -924 977 -62 187 -75 274 -75 512 0 185 3 229 22
317 67 307 205 570 411 785 256 267 559 427 918 482 118 19 336 19 455 1z"/>
<path d="M1612 2910 c-63 -39 -62 -27 -62 -692 0 -648 -1 -632 53 -672 28 -21
34 -21 657 -21 622 0 629 0 657 21 15 11 34 39 41 61 17 53 -2 104 -50 133
-32 19 -49 20 -575 20 l-543 0 -2 550 -3 550 -31 31 c-41 40 -96 48 -142 19z"/>
</g>
</svg>
