<?xml version="1.0" standalone="no"?>
<!DOCTYPE svg PUBLIC "-//W3C//DTD SVG 20010904//EN"
 "http://www.w3.org/TR/2001/REC-SVG-20010904/DTD/svg10.dtd">
<svg version="1.0" xmlns="http://www.w3.org/2000/svg"
 width="301.000000pt" height="167.000000pt" viewBox="0 0 301.000000 167.000000"
 preserveAspectRatio="xMidYMid meet">

<g transform="translate(0.000000,167.000000) scale(0.100000,-0.100000)"
fill="#000000" stroke="none">
<path d="M1377 1660 c-334 -61 -587 -287 -679 -607 -33 -111 -32 -323 0 -436
69 -240 237 -438 457 -538 126 -57 206 -73 355 -72 117 0 147 4 225 27 157 47
309 144 403 255 454 538 98 1350 -603 1376 -60 2 -132 0 -158 -5z m307 -116
c254 -66 447 -254 527 -514 34 -107 34 -283 0 -390 -82 -265 -280 -455 -539
-516 -89 -22 -248 -22 -337 0 -209 50 -389 195 -486 391 -55 113 -73 189 -73
320 -1 133 16 204 78 330 107 218 320 365 576 398 56 8 190 -3 254 -19z"/>
<path d="M1240 1356 c-62 -33 -77 -52 -97 -126 -24 -89 -24 -299 1 -389 64
-236 242 -440 457 -527 74 -30 108 -30 168 1 61 31 91 67 91 112 0 55 -25 89
-105 143 -61 41 -82 50 -118 50 -24 0 -52 -7 -63 -15 -33 -25 -52 -17 -113 44
-84 84 -141 215 -141 324 0 27 6 35 37 52 63 35 78 64 81 169 4 107 -9 146
-58 171 -41 21 -87 18 -140 -9z"/>
</g>
</svg>
