<?xml version="1.0" standalone="no"?>
<!DOCTYPE svg PUBLIC "-//W3C//DTD SVG 20010904//EN"
 "http://www.w3.org/TR/2001/REC-SVG-20010904/DTD/svg10.dtd">
<svg version="1.0" xmlns="http://www.w3.org/2000/svg"
 width="512.000000pt" height="512.000000pt" viewBox="0 0 512.000000 512.000000"
 preserveAspectRatio="xMidYMid meet">

<g transform="translate(0.000000,512.000000) scale(0.100000,-0.100000)"
fill="#000000" stroke="none">
<path d="M2205 5026 c-62 -28 -70 -47 -142 -331 l-68 -270 -102 -37 c-57 -20
-134 -51 -172 -68 l-70 -32 -233 141 c-133 80 -249 144 -269 147 -19 3 -48 0
-66 -8 -17 -7 -142 -120 -277 -251 -208 -202 -247 -245 -257 -279 -6 -22 -8
-52 -4 -66 3 -14 69 -128 146 -254 76 -126 139 -233 139 -238 0 -5 -18 -45
-40 -89 -22 -45 -53 -119 -68 -166 -26 -81 -29 -85 -62 -94 -19 -6 -138 -36
-265 -67 -126 -31 -242 -65 -256 -75 -57 -39 -59 -57 -59 -418 0 -352 2 -373
49 -416 15 -14 109 -42 294 -90 l272 -70 37 -102 c20 -57 51 -134 68 -172 l32
-70 -136 -225 c-75 -124 -142 -239 -148 -256 -25 -72 -14 -87 240 -344 130
-131 251 -244 269 -252 71 -31 90 -24 344 131 l239 144 69 -35 c38 -19 115
-51 172 -72 l103 -37 66 -268 c64 -265 66 -269 103 -303 l37 -34 357 0 c337 0
360 1 390 20 18 10 38 32 46 47 8 15 43 143 77 285 l62 256 92 32 c50 17 128
49 173 70 l81 38 54 -33 c423 -257 419 -255 472 -255 l51 0 257 258 258 257 0
51 c0 53 2 49 -255 472 l-33 54 43 91 c24 51 56 128 70 173 l27 81 260 64
c144 35 274 72 289 81 56 34 57 42 60 434 2 374 0 392 -40 413 -10 6 -138 40
-284 77 l-266 66 -31 92 c-18 51 -49 128 -69 172 l-37 79 144 238 144 238 -4
55 -5 56 -244 244 c-255 256 -294 285 -355 270 -15 -4 -131 -70 -257 -147
l-231 -141 -112 51 c-62 28 -140 58 -174 68 -55 17 -61 21 -70 53 -5 19 -35
139 -66 265 -33 132 -66 242 -77 259 -38 54 -56 56 -419 56 -255 -1 -340 -4
-363 -14z m554 -313 c6 -21 33 -132 62 -246 53 -213 73 -261 119 -284 14 -6
75 -28 137 -47 62 -19 173 -65 247 -102 114 -56 141 -65 169 -60 18 3 134 67
257 142 l223 135 136 -135 135 -135 -132 -218 c-73 -120 -136 -233 -141 -250
-12 -42 -6 -62 45 -158 57 -106 97 -204 130 -320 40 -142 36 -139 348 -215
l256 -62 -2 -195 -3 -195 -238 -59 c-131 -33 -248 -64 -260 -70 -46 -24 -68
-54 -88 -123 -32 -115 -48 -153 -121 -308 -58 -123 -69 -154 -64 -181 3 -18
67 -134 142 -257 l135 -223 -135 -136 -135 -135 -213 129 c-117 71 -228 134
-248 141 -45 16 -67 10 -165 -42 -106 -57 -204 -97 -320 -130 -136 -38 -139
-42 -203 -290 -28 -109 -57 -224 -65 -254 l-13 -55 -192 -3 -191 -2 -10 37
c-6 21 -33 132 -62 246 -53 213 -73 261 -119 284 -14 6 -75 27 -136 46 -61 19
-172 65 -247 102 -114 57 -141 66 -170 61 -18 -3 -134 -67 -257 -142 l-223
-135 -136 135 -135 135 132 218 c73 120 136 233 141 250 12 42 6 62 -45 158
-57 105 -96 202 -129 316 -25 89 -49 129 -86 150 -9 4 -106 31 -215 59 -110
28 -223 58 -252 66 l-52 15 0 189 0 189 38 10 c20 6 129 33 241 61 112 28 215
57 230 64 44 23 60 49 86 137 29 102 65 189 135 331 43 88 51 113 46 141 -3
18 -67 134 -142 257 l-135 223 135 136 135 135 218 -132 c120 -73 233 -136
250 -141 42 -12 61 -7 168 50 109 58 168 82 300 121 94 28 135 52 155 89 5 9
37 124 70 255 34 131 63 245 65 252 3 9 51 12 194 12 l190 0 10 -37z"/>
<path d="M2376 3545 c-221 -46 -403 -148 -552 -309 -258 -278 -334 -684 -195
-1041 94 -244 310 -464 550 -561 178 -72 395 -93 577 -55 296 61 544 243 684
504 89 164 125 325 117 517 -11 264 -98 466 -281 658 -126 131 -288 226 -466
273 -109 28 -331 35 -434 14z m322 -291 c212 -43 401 -191 497 -389 99 -203
98 -418 -1 -620 -89 -181 -255 -317 -454 -371 -89 -25 -271 -25 -359 0 -200
55 -367 192 -457 375 -172 351 -24 774 331 946 148 72 289 91 443 59z"/>
</g>
</svg>
