<?xml version="1.0" standalone="no"?>
<!DOCTYPE svg PUBLIC "-//W3C//DTD SVG 20010904//EN"
 "http://www.w3.org/TR/2001/REC-SVG-20010904/DTD/svg10.dtd">
<svg version="1.0" xmlns="http://www.w3.org/2000/svg"
 width="920.000000pt" height="512.000000pt" viewBox="0 0 920.000000 512.000000"
 preserveAspectRatio="xMidYMid meet">

<g transform="translate(0.000000,512.000000) scale(0.100000,-0.100000)"
fill="#000000" stroke="none">
<path d="M4405 5114 c-382 -39 -667 -121 -975 -281 -689 -356 -1189 -1016
-1339 -1768 -38 -191 -46 -277 -46 -510 1 -244 12 -354 60 -565 162 -721 667
-1369 1332 -1708 262 -133 506 -211 813 -259 142 -21 528 -25 665 -5 662 95
1226 403 1642 897 316 375 512 821 585 1330 20 137 16 523 -5 665 -86 557
-313 1021 -690 1416 -397 416 -908 680 -1487 769 -101 15 -468 28 -555 19z
m353 -780 c156 -32 270 -93 383 -204 206 -204 277 -506 186 -792 -72 -225
-247 -402 -475 -478 -80 -27 -117 -34 -213 -38 -245 -10 -441 67 -602 237
-229 243 -269 630 -95 926 49 84 171 207 250 254 171 100 375 134 566 95z m7
-2014 c395 -39 804 -169 1062 -339 189 -124 303 -280 303 -414 0 -39 -8 -53
-85 -150 -246 -306 -601 -538 -975 -635 -188 -50 -249 -57 -470 -57 -221 0
-282 7 -470 57 -268 69 -540 216 -753 403 -103 91 -147 137 -236 249 -63 80
-71 94 -71 133 0 341 638 685 1400 757 76 7 200 5 295 -4z"/>
</g>
</svg>
