<?xml version="1.0" standalone="no"?>
<!DOCTYPE svg PUBLIC "-//W3C//DTD SVG 20010904//EN"
 "http://www.w3.org/TR/2001/REC-SVG-20010904/DTD/svg10.dtd">
<svg version="1.0" xmlns="http://www.w3.org/2000/svg"
 width="512.000000pt" height="512.000000pt" viewBox="0 0 512.000000 512.000000"
 preserveAspectRatio="xMidYMid meet">

<g transform="translate(0.000000,512.000000) scale(0.100000,-0.100000)"
fill="#000000" stroke="none">
<path d="M1114 4470 c-33 -3 -84 -15 -112 -25 l-52 -19 0 -118 0 -118 39 26
c80 53 96 54 604 54 l469 0 34 34 c54 54 42 124 -26 158 -32 16 -74 18 -465
17 -236 -1 -457 -5 -491 -9z"/>
<path d="M3042 4460 c-58 -36 -68 -101 -23 -152 l29 -33 489 -5 488 -5 55 -26
c70 -33 126 -89 159 -159 l26 -55 5 -485 c3 -267 9 -493 14 -503 11 -24 58
-47 95 -47 20 0 42 11 63 29 l33 29 3 465 c3 519 -1 558 -60 677 -43 85 -143
185 -228 228 -116 58 -155 62 -660 62 -437 0 -456 -1 -488 -20z"/>
<path d="M1548 3830 c-61 -11 -141 -55 -180 -99 -17 -19 -43 -60 -57 -91 -25
-53 -26 -63 -29 -281 -4 -241 5 -345 37 -408 27 -51 93 -115 149 -143 45 -22
57 -23 331 -26 342 -4 354 -1 447 92 91 92 94 104 94 433 0 245 -2 278 -19
323 -30 78 -81 134 -159 172 l-67 33 -250 2 c-137 1 -271 -2 -297 -7z m533
-216 c53 -27 59 -58 59 -310 0 -337 13 -324 -327 -324 -197 0 -233 2 -263 18
-57 28 -60 41 -60 316 l0 248 34 34 34 34 246 0 c205 0 252 -3 277 -16z"/>
<path d="M3019 3827 c-95 -27 -165 -83 -212 -171 -21 -40 -22 -51 -22 -346 0
-299 0 -306 23 -352 30 -60 90 -120 150 -150 45 -22 58 -23 329 -26 177 -2
297 1 322 8 57 15 130 68 168 121 57 80 65 136 61 427 -3 238 -5 260 -25 304
-30 66 -96 133 -162 165 l-56 28 -265 2 c-189 2 -278 -1 -311 -10z m551 -212
c56 -29 60 -50 60 -310 0 -257 -4 -278 -56 -305 -22 -12 -76 -15 -275 -15
l-249 0 -32 33 -33 32 -3 233 c-4 263 1 297 51 327 29 18 52 20 270 20 193 0
244 -3 267 -15z"/>
<path d="M1497 2325 c-90 -33 -172 -119 -200 -209 -8 -28 -12 -125 -12 -311
l0 -270 33 -67 c37 -76 82 -120 162 -157 l55 -26 280 0 280 0 67 33 c78 38
129 94 159 172 17 45 19 78 19 323 0 329 -3 341 -94 433 -92 92 -103 94 -435
93 -209 0 -285 -4 -314 -14z m578 -201 c59 -28 65 -54 65 -308 0 -252 -6 -283
-59 -310 -25 -13 -72 -16 -277 -16 l-246 0 -34 34 -34 34 0 248 c0 275 3 288
60 316 50 25 474 27 525 2z"/>
<path d="M2809 2311 c-23 -23 -29 -38 -29 -71 0 -33 6 -48 29 -71 l29 -29 145
0 c141 0 146 1 175 25 39 33 48 74 27 118 -24 50 -48 57 -206 57 l-141 0 -29
-29z"/>
<path d="M3663 2316 c-28 -24 -28 -24 -33 -180 -5 -154 -5 -156 -33 -183 l-27
-28 -273 -5 c-267 -5 -273 -5 -327 -31 -74 -34 -120 -76 -156 -141 -28 -52
-29 -56 -32 -224 l-4 -172 30 -33 c25 -28 37 -34 72 -34 35 0 47 6 71 33 29
32 29 33 29 162 0 143 11 189 52 212 17 10 95 14 298 18 267 5 276 6 325 30
66 32 121 90 153 159 23 49 27 72 30 188 5 158 0 192 -35 227 -35 35 -100 36
-140 2z"/>
<path d="M4319 2115 c-15 -8 -31 -22 -35 -32 -5 -10 -11 -236 -14 -503 l-5
-485 -26 -55 c-33 -70 -89 -126 -159 -159 l-55 -26 -488 -5 -489 -5 -29 -33
c-45 -51 -35 -116 23 -152 32 -19 51 -20 488 -20 504 0 539 4 658 62 87 43
186 140 230 228 59 119 63 158 60 677 l-3 465 -33 29 c-36 33 -80 37 -123 14z"/>
<path d="M3468 1474 c-74 -40 -63 -154 19 -185 13 -5 76 -9 139 -9 139 0 178
13 200 66 20 47 11 87 -28 119 -28 24 -34 25 -166 25 -101 -1 -144 -5 -164
-16z"/>
<path d="M950 812 l0 -119 68 -24 c66 -23 75 -23 532 -27 314 -2 476 0 501 7
47 14 69 41 76 90 5 36 2 44 -30 76 l-35 35 -469 0 c-508 0 -524 1 -604 54
l-39 26 0 -118z"/>
</g>
</svg>
