<?xml version="1.0" standalone="no"?>
<!DOCTYPE svg PUBLIC "-//W3C//DTD SVG 20010904//EN"
 "http://www.w3.org/TR/2001/REC-SVG-20010904/DTD/svg10.dtd">
<svg version="1.0" xmlns="http://www.w3.org/2000/svg"
 width="225.000000pt" height="225.000000pt" viewBox="0 0 225.000000 225.000000"
 preserveAspectRatio="xMidYMid meet">

<g transform="translate(0.000000,225.000000) scale(0.100000,-0.100000)"
fill="#000000" stroke="none">
<path d="M1103 1688 c-6 -7 -41 -74 -78 -148 -37 -74 -68 -136 -70 -138 -1 -1
-73 -12 -160 -25 -122 -17 -160 -26 -169 -40 -9 -14 7 -35 108 -136 l119 -120
-26 -161 c-15 -89 -25 -166 -22 -171 12 -19 44 -7 175 62 74 40 140 72 145 72
6 0 71 -32 145 -72 131 -69 163 -81 175 -62 3 5 -7 82 -22 171 l-26 161 119
120 c101 101 117 122 108 136 -9 14 -47 23 -170 40 -87 13 -160 26 -162 31 -2
4 -35 70 -75 147 -70 136 -92 161 -114 133z m82 -212 c30 -62 60 -118 67 -124
8 -6 70 -18 138 -28 69 -9 127 -19 129 -21 3 -2 -39 -48 -93 -102 l-98 -99 21
-118 c12 -66 21 -127 21 -137 0 -15 -19 -8 -114 42 -62 34 -121 61 -131 61 -9
0 -67 -27 -129 -60 -62 -33 -115 -60 -117 -60 -3 0 6 61 19 137 l23 136 -97
98 c-54 54 -96 100 -93 102 2 2 59 11 127 21 67 9 128 19 135 22 6 2 38 58 69
124 31 66 59 120 63 120 3 0 31 -51 60 -114z"/>
</g>
</svg>
