<?xml version="1.0" standalone="no"?>
<!DOCTYPE svg PUBLIC "-//W3C//DTD SVG 20010904//EN"
 "http://www.w3.org/TR/2001/REC-SVG-20010904/DTD/svg10.dtd">
<svg version="1.0" xmlns="http://www.w3.org/2000/svg"
 width="512.000000pt" height="512.000000pt" viewBox="0 0 512.000000 512.000000"
 preserveAspectRatio="xMidYMid meet">

<g transform="translate(0.000000,512.000000) scale(0.100000,-0.100000)"
fill="#000000" stroke="none">
<path d="M2485 4981 c-16 -10 -39 -28 -49 -39 -11 -13 -133 -374 -286 -849
l-267 -828 -884 -5 c-982 -6 -920 -1 -971 -72 -31 -44 -32 -134 -2 -175 11
-15 337 -258 725 -539 387 -281 703 -515 703 -520 -1 -5 -121 -376 -268 -825
-154 -474 -266 -832 -266 -854 0 -81 56 -144 135 -153 77 -8 -17 -72 1103 745
l402 294 702 -511 c385 -282 714 -517 730 -522 41 -15 111 -5 146 20 37 27 62
79 62 129 0 22 -109 369 -269 858 -248 758 -268 821 -252 836 9 9 317 234 686
500 368 266 684 497 702 512 80 70 64 203 -30 255 -30 16 -102 17 -916 22
l-884 5 -267 828 c-277 857 -278 859 -342 893 -38 20 -107 17 -143 -5z m284
-1307 c113 -349 213 -648 223 -664 9 -16 29 -37 45 -47 25 -17 74 -18 725 -23
l699 -5 -553 -400 c-497 -359 -555 -405 -576 -445 -16 -32 -22 -55 -18 -80 3
-19 98 -318 211 -664 114 -345 204 -630 202 -632 -2 -2 -248 174 -547 392
-299 218 -556 401 -572 406 -51 18 -103 3 -175 -48 -38 -27 -286 -207 -552
-402 -266 -194 -485 -351 -488 -349 -2 3 88 288 201 633 113 346 209 643 212
660 4 21 -1 47 -14 77 -24 53 22 18 -655 507 l-477 345 698 5 c651 5 700 6
725 23 16 10 36 31 45 47 10 15 110 314 222 664 113 350 207 636 210 636 3 0
97 -286 209 -636z"/>
</g>
</svg>
