<?xml version="1.0" standalone="no"?>
<!DOCTYPE svg PUBLIC "-//W3C//DTD SVG 20010904//EN"
 "http://www.w3.org/TR/2001/REC-SVG-20010904/DTD/svg10.dtd">
<svg version="1.0" xmlns="http://www.w3.org/2000/svg"
 width="512.000000pt" height="512.000000pt" viewBox="0 0 512.000000 512.000000"
 preserveAspectRatio="xMidYMid meet">

<g transform="translate(0.000000,512.000000) scale(0.100000,-0.100000)"
fill="#000000" stroke="none">
<path d="M2390 4770 c-431 -33 -830 -181 -1181 -437 -56 -40 -92 -75 -103 -97
-45 -95 10 -208 111 -226 59 -10 98 6 202 81 502 360 1157 461 1745 268 165
-54 346 -143 499 -245 136 -92 176 -106 241 -84 73 24 119 116 96 192 -16 54
-54 90 -189 179 -409 270 -936 407 -1421 369z"/>
<path d="M2297 3949 c-138 -24 -263 -66 -402 -133 -147 -72 -269 -160 -390
-281 -285 -286 -435 -650 -435 -1055 0 -405 153 -773 440 -1056 213 -212 460
-343 770 -410 130 -29 438 -26 576 4 434 94 786 350 1004 729 87 151 157 363
181 548 16 121 6 373 -19 490 -53 246 -162 467 -328 667 -82 99 -124 128 -186
128 -112 0 -187 -93 -159 -197 7 -23 37 -67 76 -111 202 -227 305 -492 305
-788 0 -308 -111 -588 -320 -808 -464 -489 -1235 -489 -1701 1 -160 168 -265
375 -304 601 -19 110 -19 296 0 408 79 453 425 822 877 935 62 15 132 22 275
27 171 6 195 9 220 28 33 24 73 97 73 135 0 47 -42 111 -90 136 -40 21 -55 23
-199 22 -105 0 -191 -7 -264 -20z"/>
<path d="M397 2896 c-45 -16 -74 -40 -93 -78 -41 -80 -44 -500 -4 -728 126
-721 587 -1340 1234 -1659 164 -81 212 -96 264 -82 111 30 157 166 85 252 -17
20 -70 52 -147 88 -67 32 -157 79 -201 106 -518 313 -866 856 -935 1460 -12
109 -13 335 -1 428 6 40 5 81 0 101 -25 90 -119 142 -202 112z"/>
<path d="M4625 2895 c-48 -17 -90 -61 -103 -109 -6 -20 -7 -63 -1 -108 13
-116 10 -327 -6 -455 -40 -302 -150 -592 -323 -848 -206 -306 -456 -519 -802
-684 -128 -60 -161 -85 -179 -134 -26 -68 5 -154 68 -191 54 -31 111 -25 221
23 197 88 386 209 558 356 443 378 721 915 782 1510 13 126 8 432 -9 514 -21
101 -115 159 -206 126z"/>
</g>
</svg>
